<?xml version="1.0" encoding="utf-8"?>
<!-- Generator: Adobe Illustrator 25.4.1, SVG Export Plug-In . SVG Version: 6.00 Build 0)  -->
<svg version="1.1" id="Layer_1" xmlns="http://www.w3.org/2000/svg" xmlns:xlink="http://www.w3.org/1999/xlink" x="0px" y="0px"
	 viewBox="0 0 313 313" style="enable-background:new 0 0 313 313;" xml:space="preserve">
<style type="text/css">
	.st0{fill:#E92127;}
</style>
<g>
	<path class="st0" d="M160.1,45.5c3.2,0.4,6.3,0.7,9.5,1.3c11.5,2,21.8,6.6,31,13.7c12.3,9.4,20.8,21.5,25.3,36.3
		c5.1,16.6,4.4,33.1-2.4,49.2c-8.9,21.2-24.6,35-46.5,41.9c-8.9,2.8-18.2,3.5-27.5,2.5c-17.4-1.7-32.2-8.8-44.5-21.1
		C93.5,157.8,86.8,144,84.6,128c-2-14.7,0.2-28.7,6.8-42c6.1-12.4,15.1-22.2,26.8-29.5c9.4-5.9,19.7-9.3,30.7-10.6
		c1.2-0.1,2.5-0.3,3.7-0.4C155.1,45.5,157.6,45.5,160.1,45.5z M157.1,161.8c26.8-26.9,21.9-64.4-0.9-87
		C131.3,99.2,132.3,136.7,157.1,161.8z M132.9,59.2c0,0.2,0.1,0.4,0.1,0.6c6-0.1,11.9,0.6,17.6,2c11.1,2.7,20.9,7.8,28.8,16.3
		c8.2,8.9,12.6,19.7,14.8,31.4c0.5,2.8,0.8,5.6,1.3,8.5c0.3-0.1,0.4-0.1,0.5-0.2c0.6-0.5,1.3-1,1.8-1.6c6.9-7,11.5-15.5,15.5-24.4
		c0.2-0.5,0.1-1.3-0.2-1.8c-2.5-4-4.7-8.3-7.7-11.8c-16.9-19.7-38.2-26.8-63.6-21.6C138.8,57.2,135.9,58.3,132.9,59.2z M117.8,118.5
		c-0.5,0.4-0.9,0.6-1.2,0.9c-7.7,7.2-12.5,16.3-16.8,25.8c-0.2,0.4-0.1,1.1,0.1,1.5c5.7,11.2,14,20.2,25,26.4
		c14.1,8,29.2,10.3,45.1,6.9c3.1-0.7,6.2-1.7,9.3-2.6c0-0.2,0-0.3-0.1-0.5c-0.2,0-0.5-0.1-0.7-0.1c-5.2-0.7-10.6-1-15.7-2.1
		c-10.5-2.3-19.7-7-27.4-14.7c-9.7-9.7-14.5-21.7-16.6-35C118.5,122.9,118.2,120.8,117.8,118.5z M99.4,144.6c-0.1-1-0.3-2-0.4-3
		c-0.8-11,0.1-21.7,4.1-32c3.1-7.9,7.7-14.7,14.2-20.2c9.2-7.9,20.2-11.8,32-13.8c2.2-0.4,4.4-0.6,6.5-1c0.1-0.1,0.2-0.3,0.2-0.4
		c-0.2-0.1-0.6-0.2-0.7-0.4c-6.4-6.2-13.9-10.4-22.4-13c-1.5-0.5-2.8-0.3-4.2,0.4c-10.1,5.1-18.5,12.2-24.8,21.6
		c-9.6,14.3-12.7,30.1-9.7,47.1C95.2,135,96.8,140,99.4,144.6z M157.3,162.1c0.4,0.4,0.5,0.7,0.7,0.8c6.2,5.8,13.3,10.1,21.5,12.6
		c1.6,0.5,2.9,0.4,4.4-0.3c9.8-4.8,17.8-11.6,24.1-20.5c6.4-8.9,10-18.7,11.3-29.5c1-8.6,0.2-17.1-2.3-25.4
		c-0.7-2.4-1.7-4.7-2.5-7.1c-0.3,0.3-0.4,0.4-0.4,0.6c1,7.4,0.7,14.8-0.7,22.1c-3.6,19.7-14.4,33.6-33.1,41.2
		C173.1,159.6,165.4,161.1,157.3,162.1z"/>
	<path d="M6.8,213.1c8.9,0,17.9,0.1,26.8,0.1c9.4,0,18.7,0,28.1,0c1,0,2.2,0.3,3.1,0.8c4.6,2.5,8.5,5.8,9.5,11.2
		c0.4,2.2,0.2,4.5,0.2,6.8c0,8.1,0,16.3,0,24.4c0,4.9-3.8,9.6-8.6,10.7c-0.3,0.1-0.6,0.2-0.9,0.3c-19.4,0-38.8,0-58.3,0
		c0-11.4,0-22.8,0-34.2c6.4,0,12.7,0,19.3,0c0,7.2,0,14.1,0,21.2c0.8,0,1.4,0,2,0c9,0,18.1-0.1,27.1,0c1.6,0,2.6-0.7,3.2-2
		c0.4-0.8,0.5-1.9,0.5-2.8c0.1-5.4,0-10.8,0.1-16.3c0-2.1-0.8-3.7-2.4-4.6c-1.4-0.8-3.2-1.3-4.9-1.4c-5.3-0.2-10.5-0.1-15.8-0.1
		c-9.7,0-19.4,0-29.1,0.1C6.8,222.7,6.8,217.9,6.8,213.1z"/>
	<path d="M161.7,267.5c0-3.8,0-7.7,0-11.7c2.1,0,4.1,0,6.1,0c11.8,0,23.5,0,35.3,0c3.5,0,5.3-1.8,5.2-5.2c-0.1-2.4-1.4-3.7-3.8-3.7
		c-4.2,0-8.5,0-12.7,0c-3.7,0-7.5-0.2-11.2,0c-6.4,0.4-11.4-2.3-16.2-6c-2.7-2.1-4.3-4.9-4.3-8.5c0.5,0,0.9-0.1,1.4-0.1
		c14.5,0,29-0.1,43.4,0.1c5.9,0.1,16.1,4.7,18.5,12.8c2.7,9-0.1,20.3-13.6,22c-0.5,0.1-0.9,0.2-1.4,0.3
		C193,267.5,177.3,267.5,161.7,267.5z"/>
	<path d="M86.2,267.5c0-8,0.1-15.9,0.1-23.9c0-3.7,0-7.4,0-11.2c19.8,0,39.4,0,59.1,0c0,4.8,0,9.6,0,14.6c-13.4,0-26.7,0-40.3,0
		c0,6.9,0,13.7,0,20.5C98.8,267.5,92.5,267.5,86.2,267.5z"/>
	<path d="M240.5,267.5c0-17.5,0-35,0-52.6c5.7,0,11.2,0,16.9,0c0,3.8,0,7.6,0,11.3c0,13.5,0,27.1,0,40.6c0,0.2,0,0.4,0.1,0.6
		C251.8,267.5,246.1,267.5,240.5,267.5z"/>
	<path d="M285.7,267.5c-3.4-3.2-6.7-6.4-10.1-9.6c-4.9-4.6-9.8-9.2-14.7-13.8c-0.1-0.1-0.3-0.3-0.6-0.7c0.7,0,1.2,0,1.6,0
		c5.6,0,11.3,0,16.9,0c0.7,0,1.6,0.3,2.1,0.8c8.1,7.4,16.1,14.9,24.2,22.4c0.3,0.2,0.6,0.4,0.9,0.5c-0.4,0.1-0.8,0.3-1.1,0.3
		C298.6,267.5,292.2,267.5,285.7,267.5z"/>
	<path d="M160.3,227c0.4-3.7,2-6.5,4.5-8.8c3.7-3.4,8.2-5,13.2-5c13.9,0,27.9,0,41.8,0c0.5,0,1.1,0,1.7,0c0,4.7,0,9.2,0,13.8
		C201.2,227,180.9,227,160.3,227z"/>
	<path d="M145.4,213.2c0,4.7,0,9.2,0,13.8c-19.7,0-39.3,0-59.1,0c1-3.2,2.4-6.1,4.6-8.7c1-1.1,2.1-2.2,3.2-3.1c1.8-1.5,3.9-2,6.3-2
		c14.1,0.1,28.2,0,42.3,0C143.6,213.2,144.4,213.2,145.4,213.2z"/>
	<path class="st0" d="M305.6,215.8c-3.4,3-6.7,5.9-10.1,8.9c-5.2,4.6-10.4,9.1-15.6,13.7c-0.4,0.3-0.9,0.7-1.4,0.7
		c-5.7,0-11.5,0-17.4,0c0.3-0.4,0.4-0.7,0.6-0.9c8-7.3,16-14.6,24-21.9c0.5-0.4,1.1-0.9,1.7-0.9c6.1-0.1,12.1,0,18.2,0
		C305.5,215.6,305.6,215.7,305.6,215.8z"/>
</g>
</svg>
