<?xml version="1.0" encoding="utf-8"?>
<!-- Generator: Adobe Illustrator 25.4.1, SVG Export Plug-In . SVG Version: 6.00 Build 0)  -->
<svg version="1.1" id="Layer_1" xmlns="http://www.w3.org/2000/svg" xmlns:xlink="http://www.w3.org/1999/xlink" x="0px" y="0px"
	 viewBox="0 0 313 313" style="enable-background:new 0 0 313 313;" xml:space="preserve">
<g>
	<path d="M2.9,177.3h18.5c0,0,1-17.7,23.3-17.7l-6.3,17.7h18.8L77.2,136H58.1L49,151.4c0,0-16.3-0.8-19.6,2.5L40.1,136H22.3
		C22.3,136,9.8,153.2,2.9,177.3z"/>
	<g>
		<path d="M79.6,159.7l-15.4,17.6h18.2c4.1-8.2,14.8-7.9,14.8-7.9h11.2l-2.6,7.9h15.5l15.7-41.3C102.1,132.7,79.6,159.7,79.6,159.7z
			 M112,161.3H96.1c12.1-16.1,23.2-16.5,23.2-16.5L112,161.3z"/>
		<path d="M198.9,159.7l-15.4,17.6h18.2c4.1-8.2,14.8-7.9,14.8-7.9h11.2l-2.6,7.9h15.5l15.7-41.3
			C221.4,132.7,198.9,159.7,198.9,159.7z M231.3,161.3h-15.9c12.1-16.1,23.2-16.5,23.2-16.5L231.3,161.3z"/>
	</g>
	<polygon points="145.1,135.7 162.7,135.7 164.5,160.3 189.4,135.7 211.3,135.7 168.1,177.3 148.5,177.3 	"/>
	<path d="M310.1,168.4l-8,8.9h-38.3c0,0-12.5,0.3-8.9-9.7c3.7-9.9,11.8-31.9,11.8-31.9h22.7c0,0-6.9,3.8-10.1,12.8l-5.6,14.6
		c0,0-2.5,5.4,2.2,5.4L310.1,168.4z"/>
</g>
</svg>
