<?xml version="1.0" encoding="utf-8"?>
<!-- Generator: Adobe Illustrator 25.4.1, SVG Export Plug-In . SVG Version: 6.00 Build 0)  -->
<svg version="1.1" id="Layer_1" xmlns="http://www.w3.org/2000/svg" xmlns:xlink="http://www.w3.org/1999/xlink" x="0px" y="0px"
	 viewBox="0 0 313 313" style="enable-background:new 0 0 313 313;" xml:space="preserve">
<style type="text/css">
	.st0{fill:#FE0000;}
</style>
<g>
	<g>
		<path d="M96.3,241.3c-10.4,10.2-20.8,20.4-31.8,31.2c10.9,10.6,21.6,21,32.2,31.3c-0.2,0.3-0.3,0.7-0.5,1
			c-10.7,0-21.5,0.1-32.2-0.1c-1.3,0-2.8-1.4-3.9-2.5c-7.6-7.4-15.1-14.9-23.4-23.2c0,9.2,0,17.3,0,25.8c-9.7,0-19,0-28.4,0
			c0-21.5,0-42.8,0-64.6c9.2,0,18.5,0,28.1,0c0,8.5,0,17,0,27.2c2.8-1.4,5-2,6.4-3.4c7.1-6.9,14-14,21.2-20.8
			c1.6-1.5,4.3-2.6,6.5-2.7c8.4-0.3,16.9-0.1,25.3-0.1C96,240.6,96.1,241,96.3,241.3z"/>
		<path d="M211.9,240.6c31.1,0,61.7,0,92.8,0c0,7.7,0,15.4,0,23.4c-9.2,0-18.3,0-28,0c0-5.3,0-10.7,0-16.3c-12.3,0-24,0-36.1,0
			c0,16.6,0,33.1,0,49.8c11.8,0,23.5,0,35.7,0c0-5.3,0-10.6,0-16.2c9.7,0,18.9,0,28.3,0c0,7.7,0,15.4,0,23.4c-30.8,0-61.7,0-92.8,0
			C211.9,283.4,211.9,262.2,211.9,240.6z"/>
		<path d="M168.2,304.8c-9.6,0-18.7,0-28.4,0c0-5.3-0.2-10.6,0.1-15.8c0.2-3.9-0.9-7-3.2-10.1c-8.5-11.2-16.8-22.5-25.1-33.8
			c-1-1.3-1.8-2.6-3.3-4.7c7.7,0,14.8,0.4,21.8-0.1c5.7-0.4,9.4,1.1,12,6.4c2.1,4.2,5.1,7.9,7.7,11.9c3,4.6,5.5,4.7,8.7,0.3
			c3.7-5.2,7.2-10.5,11.1-15.5c1.1-1.5,3.5-2.7,5.3-2.8c8.1-0.3,16.2-0.1,25.3-0.1c-5.2,7.2-9.8,13.6-14.5,20
			c-3.5,4.8-6.6,9.8-10.5,14.2c-5.5,6.1-7.8,12.9-6.7,21C168.5,298.5,168.2,301.4,168.2,304.8z"/>
	</g>
	<path class="st0" d="M162.7,208.1c-37.2-0.1-66.8-5.2-93.3-20.8c-11.6-6.8-22.6-15.9-31.2-26.2c-16.8-20.2-15.9-46,0.5-66.7
		C56,72.7,79.9,61.8,106,55.1c6.9-1.8,10.9-4.8,14.3-11.3c5.1-9.7,11.1-19.4,18.7-27.2c10.8-11.2,24.9-11.2,35.5,0.2
		c7.7,8.2,13.5,18.2,19.1,28.1c3,5.3,6,8.5,12,9.9c20,4.5,38.5,12.6,54.7,25.3c35.7,28.1,35.8,68.9-0.1,96.8
		C229.5,200.5,193.7,207.6,162.7,208.1z M111.6,69.7c1.1,14.1,5.3,25.5,17.5,32c11.3,6.1,22.5,12.1,27.5,26
		c5.2-13.5,15.7-19.7,26.8-25.5c13-6.7,17.4-18.4,18.2-33.5c-14.1,0.6-21.1-8.2-26.6-19.1c-0.8-1.7-2.4-3.1-3.8-4.4
		c-9.6-9.5-19.7-9.6-29.1,0c-2.7,2.8-5.7,5.8-7.1,9.3c-3.4,8.6-9.4,12.7-18.4,13.4C115.1,68,113.6,69,111.6,69.7z M176.8,191.7
		c15.6,0.3,39.2-6.1,54.4-17.1c9.8-7.1,19.7-15.8,25.7-26c15.2-25.6-5.9-65.8-35.3-69.8c14.8,24.8,13.5,32.9-7.6,53.4
		c-7.5,7.3-15.1,14.6-21.7,22.5C183.5,165.1,177.8,177.1,176.8,191.7z M139,190.8c-5.6-11.7-9.5-23.5-16.3-33.3
		c-7-10-16.5-18.3-25.3-27c-19-18.9-20.2-27.2-6.4-50.3c0.2-0.4-0.2-1.1-0.5-2.7c-15.1,7.5-27.7,17.1-35.4,32.2
		c-5.6,11-6.1,22.5-1.6,34.1C63.5,169.4,108.1,195,139,190.8z"/>
</g>
</svg>
