<svg id="Layer_1" data-name="Layer 1" xmlns="http://www.w3.org/2000/svg" viewBox="0 0 313 313"><defs><style>.cls-1{fill:#e62b2e;fill-rule:evenodd;}.cls-2{fill:none;}</style></defs><title>lifan</title><path class="cls-1" d="M198.06,46.21l.32.18.32.16.31.17.35.1.37.11.35.08.37.08.35,0,.72.08.72,0,.66,0h.67l3.38.94,3.41,1,3.36,1,3.35,1,3.36,1.09,3.31,1.14,1.65.59,1.65.61,1.62.62,1.63.64,1.62.66,1.63.64,1.6.69,1.62.7,1.6.69,1.57.72,1.6.74,1.57.75,1.55.77,1.57.8,1.54.8,1.55.83,1.52.82,1.54.88,1.49.85,1.52.91.51.13.48.16.45.22.45.24.43.26.43.3.42.32.4.32.85.66.86.61.42.32.48.27.48.27.51.21.82.59.83.53.83.53.82.56.83.56.82.61.43.32.4.35.42.37.4.4.91.67.88.66.9.67.91.66.88.67.91.67.9.66.88.7,12.12,11.24,0,.18,0,.19,0,.19.05.16.14.32.18.29.19.27.24.26.27.24.23.24.51.43.45.45.16.24.14.27.05.1.05.16,0,.14v.13l.4.32.32.29.32.3.27.32.48.58.42.61.43.62.45.58.29.3.3.32.34.29.38.29.24.43.26.48.3.5.31.54.3.56.29.58.29.62.22.58.21.11.19.13.16.16.18.19.3.4.26.42.48.94.43.88,1.09,1.06,1.12,1.92,1.06,2,1,2,.93,2.07.9,2.08.86,2.13.8,2.19.72,2.18.69,2.24.64,2.24.56,2.29.53,2.29.45,2.32.4,2.34.35,2.35.29,2.37.21,2.37.19,2.4.11,2.37.05,2.39v2.4l-.08,2.4-.13,2.4-.19,2.39-.24,2.4-.32,2.37-.37,2.35-.43,2.37-.5,2.32-.56,2.31-.64,2.29-.69,2.27-.43,1.46-.45,1.44-.48,1.44-.54,1.41-.53,1.42-.56,1.41-.61,1.38-.61,1.39-.67,1.36-.67,1.36-.72,1.35-.74,1.36-.75,1.31-.8,1.33-.8,1.31-.85,1.3-.85,1.28-.9,1.28-.91,1.28-.93,1.25-1,1.22-1,1.23-1,1.23-1,1.19-1.06,1.2-1.09,1.2-1.12,1.17-1.15,1.15-1.14,1.15-1.18,1.14-1.22,1.12-1.23,1.12h-.56l-.61.8-.64.8-.32.37-.34.37-.35.38-.35.34-.37.35-.37.35-.4.32-.43.29-.42.26-.46.27-.48.24-.5.21-.22.38-.26.34-.24.3-.29.26-.3.24-.32.22-.32.21-.34.19-.67.42-.69.45-.35.27-.32.29-.34.35-.3.37-.21,0-.19.05-.18.11-.19.13-.35.35-.34.4-.19.18-.19.22-.21.16L268,237l-.24.16-.24.1-.27.06-.32,0-.5.48-.54.43-.56.4-.53.37-1.14.67-1.12.61-1.15.61-1.12.64-.56.38-.53.4-.53.42-.53.48-.4.14-.4.13-.38.18-.4.22-.72.45-.74.48-.72.51-.72.45-.4.21-.37.19-.4.13-.4.14L251,247.53l-1.73.8-1.76.8-1.73.8-1.73.8-1.71.77-1.73.77-1.73.75-1.73.74-1.73.72-1.74.7-1.75.66-1.79.64-1.78.64-1.79.59-1.84.53-1.83.53-.83.38-.83.34-.82.3-.83.26-.82.24-.83.21-.83.22-.82.18-.64.24-.61.24-.61.27-.64.27-.62.24-.61.18-.32.08-.29.06-.32,0-.32,0-.43.27-.42.24-.48.18-.48.16-.51.16-.51.11-.5.1-.53.11-.51.11-.51.11-.5.1-.51.16-.48.16-.48.19-.42.24-.43.26-2,.46-2,.42-2,.4-2,.38-2,.37-2.08.34-2,.32-2.11.32-2.07.3-2.11.26L181,269l-2.13.24-2.13.22-2.13.18-2.16.16-2.16.16-2.16.11-2.15.1-2.16.11-2.19.05-2.15.06-2.19,0h-2.15l-2.19,0-2.16,0-2.15-.08-2.16-.08-2.16-.08-2.16-.13-2.13-.16-2.13-.16-2.13-.19-3.38-.42L129,268.6l-3.35-.5-3.31-.54L119,267l-3.3-.61-3.25-.67-3.25-.69-3.2-.78-3.22-.77-3.17-.85-3.17-.88-3.15-.93-3.14-1-3.12-1-3.11-1.06-.83-.43-.82-.45-.86-.45-.88-.43-.42-.19-.45-.18-.46-.14-.48-.16-.48-.1-.48-.08-.5-.06-.51,0-1-.62-1-.64-1-.66-1.09-.61-.53-.3-.56-.29-.56-.24-.56-.24-.58-.21-.59-.19-.61-.16-.62-.13-2.69-1.52-2.66-1.55L60,246.09l-2.63-1.6-2.61-1.65-2.59-1.7-1.3-.85-1.28-.88-1.28-.88L47,237.62l-1.28-.9-1.25-.94-1.26-.93L42,233.92l-1.25-1-1.23-1-1.22-1-1.2-1-1.2-1-1.2-1-1.2-1.07-1.17-1.06-1.17-1.1L30,223.55l-1.14-1.11-1.15-1.15-.1-.29-.19-.3-.21-.26-.24-.27-.59-.53-.66-.56-.67-.56-.67-.61-.29-.32-.29-.35-.27-.37-.21-.4-.4-.3-.35-.31-.29-.35-.29-.32-.48-.69-.48-.7-.22-.34-.26-.38-.27-.34-.29-.32-.35-.35-.37-.32-.43-.32-.48-.32-.24-.58-.29-.61-.29-.62-.35-.58-.37-.62-.4-.58-.4-.62-.43-.61-.18-.11-.16-.13-.14-.16-.1-.16-.16-.37-.16-.4-.08-.19-.08-.21-.11-.19-.13-.18-.19-.16-.18-.16-.24-.14-.3-.1,0-.4-.06-.38-.1-.34-.16-.32-.19-.35-.19-.32-.21-.32-.24-.32-.45-.66-.46-.75-.21-.37-.19-.43-.15-.45-.11-.48-.56-.53-1-2-1-1.94-.88-2-.85-2-.8-2.08-.75-2.1L4.13,183l-.67-2.16-.58-2.18-.54-2.19-.48-2.23L1.44,172l-.37-2.27-.3-2.26-.26-2.27-.22-2.29-.16-2.26L0,158.37l0-2.3v-2.31l.08-2.29.11-2.27.18-2.29.24-2.27.3-2.26.34-2.24.43-2.23.45-2.22.53-2.18.56-2.19.64-2.15.7-2.11.53-1.46.56-1.44.58-1.44.62-1.44.66-1.41.67-1.44L8.87,117l.72-1.41.77-1.39.77-1.38.8-1.39.83-1.38.85-1.36.91-1.36.9-1.36.94-1.36.93-1.33,1-1.33,1-1.34,1-1.3L21.36,98l1.07-1.3,1.09-1.28,1.12-1.28,1.15-1.28,1.14-1.28,1.2-1.25,1.2-1.22,1.22-1.26,1.23-1.22,1.28-1.23,1.28-1.2.4-.13.37-.13.35-.19.34-.21.32-.21.32-.24.29-.24.3-.24.56-.51.53-.45.29-.22.27-.18.32-.14.29-.13.32-.37.32-.35.35-.32.32-.29.69-.53.69-.48.64-.43.61-.45.3-.24.26-.27L44,77l.22-.27.61-.43.64-.37.61-.4.61-.35.64-.34.62-.3.61-.29.61-.21.24-.3.24-.26.27-.24.26-.24.59-.43.61-.4.61-.42.59-.43.29-.21.27-.27.24-.27.21-.29.4-.11.4-.13.4-.16.37-.16.75-.37.72-.4.72-.4.75-.37L58.5,68l.37-.16.4-.14.43-.1.29-.3.35-.26.32-.24.34-.24.72-.4.72-.37.72-.35.72-.32.66-.35.67-.4,1.65-.8,1.65-.79L70.17,62l1.65-.77,1.65-.75,1.65-.69,1.65-.66,1.65-.64.11-.19.11-.13.1-.14.11-.08.11,0,.13,0,.11,0h.13l.56.08.74,0,2-.88,2-.85,2-.82,2.05-.78,2-.74,2.1-.72,2.08-.69L97,51.83l2.11-.64,2.16-.61,2.13-.62,2.15-.55,2.16-.56,2.16-.54,2.18-.53,2.16-.51.13-.18.14-.11.16-.11.18,0,.19,0,.21,0,.22,0,.24,0,.45,0,.48,0h.24l.24,0,.21,0,.22-.08,2-.42,2-.43,2.07-.4,2.08-.35,2.13-.34,2.14-.32,2.15-.3,2.16-.26,2.19-.24,2.18-.22,2.21-.18,2.21-.19,2.21-.13,2.24-.13,2.21-.09,2.24-.07,2.24-.06,2.23,0H161l2.21,0,2.24,0,2.21.11,2.21.1,2.18.14,2.19.16,2.16.18,2.15.19,2.13.21,2.14.27,2.1.27,2.08.29,1.41.19,1.39.21,1.35.19,1.36.21,1.33.19,1.36.21,1.39.19,1.44.21Zm13.77,12.84,1.33.5,1.36.54,1.33.53,1.36.56,1.33.56,1.36.59,1.33.58,1.36.64,1.33.64,1.33.64,1.36.69,1.33.7,1.36.71,1.33.75,1.36.75,1.33.8,1.23.61,1.23.66,1.22.7,1.2.72,1.17.74,1.2.77,1.17.8,1.18.83,1.14.83,1.15.85,1.17.88,1.14.88,1.12.88,1.15.9,1.14.91,1.15.9h.53l.91.83,1,.85,1.07.91,1,1,.5.48.51.48.45.48.45.5.38.51.34.48.3.5.24.51H238.84l-3.3,6.55-3.31,6.56-3.3,6.58-3.33,6.55-3.3,6.55L219,128.93l-3.3,6.55-3.3,6.58-3.31,6.56-3.33,6.55-3.3,6.55-3.3,6.56-3.3,6.58-3.31,6.55-3.3,6.55-3.33,6.56.56.53h49.07l.4-.59.42-.53.37-.53.38-.56.34-.56.32-.61.16-.32.14-.35.1-.37.11-.4.43-.62.4-.66.4-.72.37-.75.34-.74.32-.8.27-.8.24-.8-42.46-.53.08-.19.05-.19.08-.16.11-.16.1-.13.11-.11.13-.13.11-.11.29-.18.32-.13.35-.14.35-.11.74-.18.75-.19.37-.1.37-.14.35-.13.32-.19.72-.4.72-.37.72-.35.72-.32,1.46-.63,1.44-.62,1.44-.61,1.46-.61.72-.35.72-.35.72-.37.72-.37.06-.16.07-.11.08-.13.08-.11.19-.16.19-.13.24-.08.24-.08.26-.08.24,0,.27-.05.24-.08.26-.05.22-.11.21-.13.19-.16.08-.11.08-.11,0-.13.05-.16.51-.11.48-.18.48-.19.43-.24.45-.27.42-.29.4-.29.43-.29.4-.3.43-.29.42-.29.43-.27.45-.24.45-.19.48-.18.51-.11.64-.43.61-.45.62-.48.63-.45.62-.45.61-.38.32-.18.29-.16.32-.14.32-.1.93-.83.91-.83.93-.85.93-.88,1.87-1.78,1.86-1.79,1.87-1.81,1.86-1.78.94-.86.93-.85.9-.85.94-.83,0-.29.08-.27.11-.29.16-.27.16-.23.21-.27.21-.24.22-.27.48-.5.45-.51.21-.27.16-.29.16-.27.14-.29.29-.21.24-.21.24-.24.21-.24.35-.48.32-.51.32-.48.34-.51.22-.21.21-.24.27-.21.29-.21.4-.59.35-.53.31-.51.33-.51.29-.5.34-.54.35-.53.37-.58,1.15-2.16,1.14-2.19,1.12-2.18,1.15-2.16,1.14-2.18,1.15-2.19,1.12-2.16,1.14-2.18,1.15-2.18,1.12-2.16,1.14-2.19,1.15-2.18,1.12-2.16,1.14-2.18,1.15-2.16,1.12-2.19.18,0,.16-.06.11-.1.11-.08.1-.11.11-.08.16,0,.19,0,.37.4.34.4.32.4.27.4.48.8.43.8,1,1.78,1,1.76,1,1.71,1,1.73,1,1.7,1,1.71.46.88.42.88.43.88.43.9,1,2.53,1,2.56.86,2.61.77,2.66.69,2.67.59,2.69.5,2.72.43,2.74.35,2.77.23,2.77.16,2.77.08,2.8v2.8l-.08,2.79-.18,2.77-.27,2.77-.32,2.78-.42,2.77-.51,2.71-.59,2.72-.66,2.69-.72,2.67-.83,2.63-.9,2.59-1,2.55-1.06,2.51-1.12,2.48-1.23,2.42L279,199.55l-1.36,2.32-1.43,2.24-1.52,2.18-.3.32-.26.32-.27.32-.24.35-.48.69-.45.69-.24.35-.24.34-.27.35-.26.35-.32.34L271,211l-.37.32-.38.3.06.21,0,.19,0,.16-.08.16-.14.16-.13.15-.16.17-.19.16-.34.29-.35.32-.13.16-.11.18-.08.19,0,.19-.82,1.09-.85,1.06-.91,1-.91,1-.93,1-.93,1-1,1-1,1-1,1-1,.93-1,.93-1,.91-2.05,1.84-2.08,1.81-.29.1-.27.16-.26.19-.24.19-.46.45-.4.51-.42.5-.46.46-.24.18-.24.19-.29.16-.29.11-.29.29-.32.24-.32.24-.3.18-.61.38-.56.34-.29.19-.27.19-.27.21-.26.24-.24.24-.24.29-.21.35-.22.37-.64.21-.61.27-.61.32-.61.35-.64.34-.62.4-.61.38-.64.4-.85.61-.88.61-.91.59-.93.61-.93.61-.91.59-.9.61-.85.59-.62.21-.61.21L231,245l-.58.24-.56.26-.53.3-.24.16-.24.18-.22.16-.21.22-1.65.61-1.65.66-1.63.72-1.62.75-1.6.74-1.55.8-1.51.8-1.47.8-.29-.08-.27,0h-.21l-.21.05-.17,0-.15.11-.16.11-.14.1-.24.27-.26.24-.14.11-.16.05-.16,0-.21,0h-.29l-.3,0-.29,0-.27.05-.53.11-.5.19-.54.24-.53.26-.56.32-.59.38-.82.21-.83.19-.82.21-.83.19-.82.21-.83.21-.83.19-.82.21-3.09.85-3.14.8-3.17.75-3.23.67-3.27.61-3.31.56-3.35.45-3.36.43-3.41.34-3.44.27-3.43.21-3.47.16-3.46.08h-3.46l-3.49-.05-3.46-.11-3.49-.18-3.47-.27-3.43-.29-3.44-.4-3.41-.43-3.41-.53-3.36-.56-3.33-.67-3.27-.69-3.25-.77L111.3,257l-3.15-.9-3.12-1-3-1L99,253l-2.93-1.17-.83-.4-.85-.37-.91-.35-.88-.34-1.83-.7-1.87-.72-.93-.4-.91-.4-.93-.45-.9-.48-.91-.5-.88-.56-.43-.32-.42-.3-.43-.34-.42-.35-.51-.11-.51-.16-.48-.18-.47-.19-.48-.24-.48-.24-.46-.27-.48-.26-.93-.56-.93-.56-.48-.27-.48-.24-.51-.24-.5-.21-.32-.37-.35-.32-.32-.27-.34-.24-.35-.18-.37-.19-.35-.16-.37-.16-.35-.13-.37-.16-.35-.19-.37-.19-.32-.24-.35-.26-.32-.32-.32-.38-.21,0-.19-.06-.18-.05-.16-.11-.32-.26-.32-.3-.32-.29-.32-.26-.16-.11-.19-.08-.18-.05h-.22l-.32-.38L65.1,235l-.32-.3-.34-.26-.69-.46-.7-.42-.32-.19-.32-.21-.32-.21-.29-.24-.29-.27-.27-.29-.24-.35-.21-.37-.4-.22L60,231l-.37-.24-.38-.29-.37-.29-.32-.29-.35-.32-.31-.32-.59-.67-.53-.67-.51-.64-.43-.64v-.53l50.72-.53.27-.21.24-.22.21-.24.16-.21.14-.24.1-.27.11-.24.08-.24.13-.5.19-.51.1-.21.11-.24.16-.21.19-.22.64-1.57.69-1.57.72-1.52.72-1.54.72-1.58.69-1.62.35-.83.34-.85.32-.88.32-.88-62.84-.53.11-.19.13-.18.11-.16.13-.16.29-.27.35-.21.35-.19.37-.16.37-.13.4-.11.85-.16.88-.19.46-.1.42-.14.43-.16.43-.18,1.94-.72,1.92-.75,1.92-.8,1.89-.79,1.86-.86,1.87-.85,1.84-.88,1.83-.9,1.84-.91,1.84-.93,1.81-.91,1.84-.93,1.84-.93,1.81-.94,1.86-.9,1.84-.91.85-.8.91-.8.93-.77,1-.72.51-.34.5-.32.51-.32.5-.3.51-.29.51-.24.53-.24.51-.21.21-.38.24-.34.26-.3.27-.26.29-.21.32-.22.3-.18.32-.19.61-.35.59-.37.26-.19.27-.24.24-.24.24-.29.29-.11.29-.16.27-.18.29-.19.51-.45.48-.45.45-.43.43-.37.21-.14.21-.1.22-.08h.18l14.34-13.94.08-.18,0-.19.08-.19.1-.18.22-.32.24-.29.26-.27.3-.27.29-.26.32-.24.29-.27.32-.27.3-.26.26-.27.24-.29.21-.32.08-.19.08-.18.08-.19.06-.19,1-1.12,1-1.14,1-1.2,1-1.23.93-1.22.91-1.28.88-1.28.85-1.3.85-1.31.83-1.31.8-1.33.8-1.33.77-1.33.74-1.33.75-1.31.75-1.33,1.09-.53.82-1.71.8-1.73.8-1.73.83-1.73.8-1.76.8-1.73.79-1.76.83-1.76.83-1.76.85-1.76.88-1.76.88-1.73.93-1.75,1-1.74,1-1.73,1-1.7.64-1.39.64-1.41.64-1.36.66-1.38.67-1.36.69-1.36.67-1.36.72-1.36.69-1.36.69-1.36.72-1.36.72-1.35.72-1.36.72-1.39.72-1.38.72-1.42.56-.53-.56-.53H103.22l-3.81,7.59-3.83,7.59-3.81,7.6L87.93,120l-3.81,7.62-3.83,7.59-3.84,7.59-3.81,7.6-3.83,7.59L65,165.53l-3.84,7.62-3.81,7.59-3.83,7.6-3.81,7.59-3.84,7.59L42,211.11l-.19.11-.19.05-.16.06-.16,0-.16,0-.1,0h-.14l-.1,0-.22-.11-.16-.13-.13-.19-.13-.21-.27-.48-.29-.48-.16-.24-.22-.18-.1-.11-.13-.08-.14-.05-.16-.06-.21-.58-.29-.54-.3-.53-.29-.51-.32-.48-.29-.53-.27-.53-.24-.59-.26-.21-.25-.24L35.8,204l-.16-.27-.26-.56-.22-.55-.1-.27-.11-.27-.13-.24-.14-.24-.18-.21-.19-.16-.24-.16-.29-.13-.32-.88-.37-.88-.4-.85-.4-.83-.86-1.6-.9-1.57-.43-.77-.42-.78-.4-.77-.38-.77-.37-.77-.32-.8-.27-.77-.24-.8-.4-1-.4-1L26.53,185l-.37-1.07-.35-1.09-.34-1.12-.32-1.12-.32-1.12-.62-2.26-.53-2.29-.48-2.27-.45-2.21L22.51,169l-.21-1.41-.19-1.41L22,164.79l-.14-1.42L21.76,162l-.08-1.41,0-1.44,0-1.41,0-1.41,0-1.42.06-1.41.08-1.38.1-1.41.14-1.42.13-1.38.19-1.39.16-1.38.21-1.39.21-1.36L23.2,141l.24-1.36.27-1.36.29-1.33.59-2.66.64-2.62.66-2.58.72-2.53.19-.32.18-.32.16-.32.14-.35.26-.69.24-.69.14-.35.13-.34.16-.35.19-.35.18-.34.24-.32.27-.32.27-.29.45-1.2.45-1.18.51-1.14.53-1.15.56-1.09.56-1.12.61-1.09.61-1.07L34.9,110l1.3-2.16,1.28-2.13,1.25-2.21.4-.19.32-.21.27-.24.24-.24.21-.24.19-.24.16-.24.16-.27.16-.24.16-.27.16-.24.21-.24.24-.23.27-.22.34-.21.38-.21,0-.3.08-.26.11-.24.13-.24.16-.22.19-.21.21-.21.19-.22.21-.18.21-.21.19-.22.16-.21.13-.24.11-.24.08-.27,0-.29.79-.61.75-.67.72-.67.69-.69,1.31-1.44,1.25-1.41.61-.69.64-.67.64-.66.67-.62.32-.29.34-.29.38-.27.34-.26.38-.27.39-.24.38-.21.42-.22.43-.56.43-.56.42-.48.46-.45.47-.45.46-.4.5-.4.48-.37,1-.75,1-.77.51-.4.53-.43.51-.45.5-.48.64-.4.61-.4.62-.4.64-.4.61-.4.61-.42.61-.4.64-.4.22-.27.21-.27.24-.21.24-.19.24-.18.27-.14.24-.16.26-.1.51-.27.5-.24.24-.13.24-.16.24-.16.22-.19.4-.37.42-.35.4-.29L74,71.7l.82-.45.83-.43,1.44-.88,1.44-.87L80,68.24l1.44-.83,1.47-.79,1.46-.78,1.47-.77,1.46-.72,1.47-.72,1.49-.72,1.49-.66,1.49-.67,1.52-.67,1.52-.64,1.54-.61,1.55-.61,1.41-.4,1.38-.4,1.36-.4,1.33-.4,1.36-.4,1.36-.4,1.39-.4,1.41-.4.53-.18.51-.19.53-.13.51-.14,1-.24,1-.21,1-.19,1-.24.53-.13.51-.13.5-.19.53-.19,1.55-.34,1.57-.32,1.57-.29,1.57-.3,1.6-.26,1.6-.27,1.6-.21,1.62-.24,1.63-.19,1.62-.19,1.63-.16,1.65-.16,1.65-.13,1.65-.13,1.65-.11,1.68-.11,1.65-.08,1.68-.05,1.68,0L151.2,50l3.38,0H158l3.4,0,3.39.11,3.41.13,3.41.19,2.58.21,2.59.27,2.58.34,2.58.35,2.56.43,2.56.45,2.55.48,2.54.53,2.53.59,2.5.58,2.5.67,2.48.66,2.45.7,2.45.74,2.4.78,2.4.77Zm12.68,30.53-1.31,2.77-1.3,2.77-1.31,2.8-1.33,2.77L218,103.46l-1.3,2.77-1.31,2.8L214,111.8l-1.31,2.77-1.3,2.77-1.33,2.8-1.31,2.77-1.3,2.77-1.31,2.79-1.3,2.77L203.57,134l-.61.79-.53.8-.54.83-.48.8-.45.8-.43.8-.42.8-.4.8-.51.72-.48.71-.48.72-.45.75-.88,1.47-.85,1.46-.45.72-.46.72-.48.69-.48.69-.5.7-.54.64-.55.64-.62.61,0,.21-.06.19-.08.16-.1.18-.27.32-.29.35-.16.19-.14.18-.16.19-.1.21-.11.24-.08.24,0,.27,0,.29-.83.72-.77.61-.34.32-.3.3-.16.18-.13.16-.11.19-.1.19-1.81,1.91-1.68,1.79-1.6,1.65-1.6,1.63-1.62,1.59-1.71,1.68-1.81,1.76-2,1.92-.29,0-.27.05-.27.11-.24.15-.21.17-.19.15-.21.22-.19.18-.34.4-.35.35-.16.13-.19.11-.18,0-.21,0-.22.29-.24.24-.26.24-.27.19-.61.37-.62.35-.29.18-.32.19-.29.21-.29.24-.27.24-.27.3-.24.34-.24.38-.61.21-.61.29-.61.3-.64.34-.62.35-.61.4-.61.37-.64.43-.11.18-.13.16-.16.14-.19.13-.4.24-.45.21-.48.19-.48.24-.24.13-.24.16L158,182l-.21.19-1.44.8-1.47.8-1.46.77-1.5.77-1.51.75-1.55.69-.77.35-.8.32-.8.32-.82.32-.94.58-1,.56-1,.51-1,.48-1,.48-1,.42-1,.43-1,.43-2,.77-2,.77-2.08.75-2.05.77,1.09,1.06h52.38l-.06.4-.08.4-.08.4-.1.4-.27.78-.27.77L182,200l-.35.75-.4.74-.4.78-.85,1.49-.83,1.52-.42.77-.38.77-.37.8-.32.8H115.37v-1.07l3.68-7.38,3.67-7.35,3.71-7.38,3.67-7.35,3.7-7.35,3.68-7.38,3.68-7.36,3.7-7.35,3.68-7.38,3.7-7.35,3.67-7.35,3.68-7.38,3.7-7.36,3.68-7.35,3.67-7.38,3.71-7.35Z"/><rect class="cls-2" x="300" width="313" height="313"/></svg>