<?xml version="1.0" encoding="UTF-8"?>
<svg width="313px" height="313px" viewBox="0 0 313 313" version="1.1" xmlns="http://www.w3.org/2000/svg" xmlns:xlink="http://www.w3.org/1999/xlink">
    <title>icon / marca / maserati</title>
    <g id="icon-/-marca-/-maserati" stroke="none" stroke-width="1" fill="none" fill-rule="evenodd">
        <g id="Maserati" transform="translate(34.000000, 0.000000)" fill="#0D364E">
            <path d="M151.300418,265.542999 L151.300418,279.169832 L95.9639388,279.169832 L95.9639388,265.542999 L151.300418,265.542999 Z M144.595151,284.469156 L144.595151,312.768268 L102.777355,312.768268 L102.777355,284.469156 L144.595151,284.469156 Z M205.87985,202.203459 L205.87985,209.088976 L41.5647553,209.088976 L41.5647553,202.239509 L205.87985,202.203459 Z M214.603907,215.145346 L214.603907,221.958763 L32.8046482,221.958763 L32.8046482,215.145346 L214.603907,215.145346 Z M214.351559,189.513921 L214.351559,196.363388 L32.5522995,196.363388 L32.5522995,189.513921 L214.351559,189.513921 Z M152.345863,236.66709 C143.261307,244.9946 143.297357,259.919227 143.297357,259.919227 L104.111199,259.919227 C104.111199,259.919227 104.111199,244.9946 95.0626932,236.66709 C91.0625326,233.050749 86.1731203,230.562498 80.8951126,229.457126 C75.8120875,228.447731 75.8120875,227.870934 75.8120875,227.510435 L171.668568,227.510435 C171.668568,227.510435 171.668568,228.447731 166.585543,229.493176 C161.27984,230.559337 156.36027,233.037804 152.345863,236.66709 Z M42.3578514,227.690684 L62.041055,227.690684 C62.041055,239.370827 54.5066419,244.634101 42.3578514,242.110614 L42.3578514,227.690684 Z M112.258459,39.2582577 C120.11732,23.7568336 121.631413,0.360498234 123.650203,0 C125.560844,0.360498234 127.074936,23.7568336 134.933798,39.2582577 C142.360061,53.9305358 158.258034,66.3677248 157.392838,67.8097178 C156.527642,69.2517107 147.407037,65.0699312 142.972908,62.9790414 C135.762944,59.6624577 130.103122,57.0668704 130.103122,57.0668704 C128.704081,81.0702447 130.792663,105.149656 136.303691,128.55367 C142.223291,148.484273 151.276861,167.345877 163.12476,184.430896 L140.449421,184.430896 L138.394581,180.825914 C131.717448,169.475407 126.737847,157.208585 123.614153,144.415592 C120.436735,157.202391 115.434559,169.465008 108.761626,180.825914 L106.706786,184.430896 L84.0314472,184.430896 C95.8948318,167.354891 104.949635,148.490718 110.852516,128.55367 C116.387759,105.153371 118.488641,81.0721674 117.089135,57.0668704 C117.089135,57.0668704 111.321164,59.6624577 104.183298,62.9790414 C99.7491702,65.0699312 90.9530133,69.6122089 89.7633691,67.8097178 C88.573725,66.0072266 104.832195,54.0747351 112.258459,39.2582577 L112.258459,39.2582577 Z M41.5287055,184.430896 C41.5287055,181.65506 40.0146129,144.019044 31.1824062,114.422139 C21.5210535,81.9772984 2.05414888,62.7266927 3.35194252,60.7439524 C4.64973616,58.7612121 20.6558577,62.258045 32.7325486,70.5495043 C45.6023355,79.4177609 58.2558235,94.0539892 57.3185281,95.1354839 C56.3812327,96.2169786 52.3797023,92.2154482 44.5568906,89.2593627 C40.7967316,87.5240722 36.6928891,86.6614026 32.5522995,86.735875 C41.3270658,101.751796 48.2739571,117.763533 53.2448981,134.429791 C57.4398657,150.854896 60.4160623,167.567384 62.1492044,184.430896 L41.5287055,184.430896 Z M205.9159,184.430896 C205.9159,181.65506 207.393943,144.019044 216.22615,114.422139 C225.923552,81.9772984 245.354407,62.7266927 244.056613,60.7439524 C242.75882,58.7612121 226.752698,62.258045 214.712057,70.5495043 C201.80622,79.4177609 189.188782,94.0539892 190.126077,95.1354839 C191.063373,96.2169786 195.028853,92.2154482 202.851665,89.2593627 C206.600037,87.527017 210.691503,86.6643585 214.820206,86.735875 C206.064994,101.757069 199.130608,117.767877 194.163658,134.429791 C190.006633,150.863085 187.030931,167.572797 185.259351,184.430896 L205.9159,184.430896 Z M205.122804,227.690684 L185.367501,227.690684 C185.367501,239.370827 192.937964,244.634101 205.122804,242.110614 L205.122804,227.690684 Z" id="Shape"></path>
        </g>
    </g>
</svg>