<svg xmlns="http://www.w3.org/2000/svg" xmlns:xlink="http://www.w3.org/1999/xlink" viewBox="0 0 313 313"><defs><style>.cls-1{fill:#fff;}.cls-2{fill:#e30613;}.cls-3{mask:url(#mask);}.cls-4{fill:none;}</style><mask id="mask" x="0" y="126.35" width="313" height="58.62" maskUnits="userSpaceOnUse"><g id="mask-2"><polygon id="path-1" class="cls-1" points="0 184.97 313 184.97 313 126.35 0 126.35 0 184.97"/></g></mask></defs><title>shineray</title><g id="Layer_2" data-name="Layer 2"><g id="Layer_1-2" data-name="Layer 1"><g id="shineray"><polygon id="Fill-1" class="cls-2" points="0 126.35 28.53 155.33 0 184.97 313 184.97 313 126.35 0 126.35"/><path id="Fill-2" class="cls-1" d="M241.85,157.83l4.82-12.45,5.27,12.45Zm7.33-19.58h-4.69l-14.73,34.52h6l4-9.65h13.87l4,9.65h5.84Z"/><g id="Group-15"><path id="Fill-3" class="cls-1" d="M208.55,138.25h8.27c6.07,0,10,2.91,11.81,6.62a10.78,10.78,0,0,1,0,9.22c-1.65,3.44-5.2,6.16-10.63,6.46l10.75,12.22h-6.87l-11.5-13.08-3.75-4.28h10.39c3.69,0,6-1.53,6.92-3.52a5.57,5.57,0,0,0,.54-2.4,5.64,5.64,0,0,0-.57-2.41c-1-2.06-3.35-3.67-7.12-3.67h-8.27Z"/><g id="Fill-5-Clipped"><g class="cls-3"><polygon id="Fill-5" class="cls-1" points="188.53 172.77 206.23 172.77 206.23 168.15 188.53 168.15 188.53 172.77"/></g></g><g id="Fill-7-Clipped"><g class="cls-3"><polygon id="Fill-7" class="cls-1" points="188.53 142.87 206.23 142.87 206.23 138.25 188.53 138.25 188.53 142.87"/></g></g><g id="Fill-8-Clipped"><g class="cls-3"><polygon id="Fill-8" class="cls-1" points="188.53 158.07 206.23 158.07 206.23 153.46 188.53 153.46 188.53 158.07"/></g></g><g id="Fill-9-Clipped"><g class="cls-3"><polygon id="Fill-9" class="cls-1" points="181.73 165.48 161.36 138.25 156.59 138.25 156.59 172.77 161.05 172.77 161.05 145.42 181.4 172.77 186.2 172.77 186.2 138.25 181.73 138.25 181.73 165.48"/></g></g><g id="Fill-10-Clipped"><g class="cls-3"><polygon id="Fill-10" class="cls-1" points="104.38 172.77 109.69 172.77 109.69 157.61 125.39 157.61 125.39 172.77 130.62 172.77 130.62 138.25 125.39 138.25 125.39 153.08 109.69 153.08 109.69 138.25 104.38 138.25 104.38 172.77"/></g></g><g id="Fill-11-Clipped"><g class="cls-3"><path id="Fill-11" class="cls-1" d="M98.48,158.87c-.59-3.13-4.83-5.15-8.56-6.25-5.11-1.51-11-1.79-11-5.49a4.45,4.45,0,0,1,.58-2.41c2.36-3.72,9.34-3.52,11.81.06a4.34,4.34,0,0,1,.64,1.84h5.69a8.1,8.1,0,0,0-.87-3.23,8.35,8.35,0,0,0-2.54-2.92,11.81,11.81,0,0,0-3.9-1.82,18.73,18.73,0,0,0-5-.62,19.23,19.23,0,0,0-5.21.67,12.92,12.92,0,0,0-4,1.91,8.63,8.63,0,0,0-2.6,3,8.2,8.2,0,0,0-.92,3.91,7.37,7.37,0,0,0,.66,3.21,6.87,6.87,0,0,0,2.06,2.51,13.18,13.18,0,0,0,3.62,1.9,30.49,30.49,0,0,0,5.34,1.34c1.5.27,2.79.55,3.87.82,3.36.87,4.63,2.89,4.55,4.94-.11,2.63-2.56,5.28-6.71,5.55s-8.39-.88-8.73-5.85H71.76a11.28,11.28,0,0,0,.91,4.18,8.7,8.7,0,0,0,2.62,3.35,11.23,11.23,0,0,0,4.1,1.95,21,21,0,0,0,5.35.63,23.5,23.5,0,0,0,5.75-.65,13.76,13.76,0,0,0,4.37-1.9,8.84,8.84,0,0,0,2.78-3.07,12,12,0,0,0,.84-7.55"/></g></g><g id="Fill-12-Clipped"><g class="cls-3"><polygon id="Fill-12" class="cls-1" points="273.4 153.99 264.52 138.25 257.61 138.25 270.38 159.81 270.38 172.77 276.07 172.77 276.07 159.81 288.84 138.25 281.88 138.25 273.4 153.99"/></g></g><g id="Fill-13-Clipped"><g class="cls-3"><polygon id="Fill-13" class="cls-1" points="146.24 138.25 155.81 138.25 140.33 172.77 130.76 172.77 146.24 138.25"/></g></g><g id="Fill-14-Clipped"><g class="cls-3"><polygon id="Fill-14" class="cls-1" points="55.99 127.22 27.69 155.02 27.69 155.12 55.99 182.93 46.97 155.07 55.99 127.22"/></g></g></g></g><rect class="cls-4" width="313" height="313"/></g></g></svg>